{"title":"Demon Exorcism - The Devil Inside Maxwell Bastas (2013) DVDRip","uid":8346278,"size":723850847,"categoryP":"video","categoryS":"movies","magnet":"?xt=urn:btih:fa05b23bcdd662df4f7d32076a5dff99a5582646&amp;dn=Demon+Exorcism+-+The+Devil+Inside+Maxwell+Bastas+%282013%29+DVDRip&amp;tr=udp%3A%2F%2Ftracker.openbittorrent.com%3A80&amp;tr=udp%3A%2F%2Fopen.demonii.com%3A1337&amp;tr=udp%3A%2F%2Ftracker.coppersurfer.tk%3A6969&amp;tr=udp%3A%2F%2Fexodus.desync.com%3A6969","seeders":0,"leechers":1,"uploader":"RadioResearch","files":3,"time":1365213361,"description":"*******************************************************************************\n        Demon Exorcism - The Devil Inside Maxwell Bastas (2013) DVDRip\n*******************************************************************************\n\n-------------------------------------------------------------------------------\n                              General Information\n-------------------------------------------------------------------------------\nType.................: Movie\n\n\n\nVideo Format.........: AVI\nVideo Bitrate........: 992\nResolution...........: 640 x 369\nColor................: 8 bit\nFPS..................: 23.976\nSource...............: DVD 1.739:1\nOriginal Format......: NTSC\nGenre................: Horror\nIMDb Rating..........: 3.6\nMovie Information....: http://www.imdb.com/title/tt1649749/\n\n-------------------------------------------------------------------------------\n                               Post Information\n-------------------------------------------------------------------------------\nPosted by............: RadioResearch\nPosted on............: 4/5/2013\n\n-------------------------------------------------------------------------------\n                                 Release Notes\n-------------------------------------------------------------------------------\nSEEDBOX SUPPORTED!!\n\nThe story is a harrowing-tormented-horror tale of good vs. evil. Maxwell is \nhooked with anger and it starts to consume his soul until he realizes he is \ngrappling with demons. Beelzebub, the lord of the flies, plagues Max to commit \nsuicide to end his chaos. Destiny drops max right into the hands of the Fishers, \nEmma and Lester. After Max finds sanctuary under Emma's roof, a string of wicked \nevents brings down an avalanche of evil upon Max and everyone attempting to help \nhim. Priests, rabbi's and his new found friends all fight and die attempting to \naid Max which culminates into a battle against Satan himself. Testing all of \ntheir will's to believe in a higher path...or allow The Devil to conquer. \n\nEnjoy!\n\nRadioResearch\n\nGeneral\nComplete name                            : G:AVIavi10 29 2012 11 34Demon \nExorcism - The Devil Inside Maxwell Bastas (2012) DVDRip10 29 2012 11 \n34.Title2.avi\nFormat                                   : AVI\nFormat/Info                              : Audio Video Interleave\nFile size                                : 690 MiB\nDuration                                 : 1h 37mn\nOverall bit rate                         : 992 Kbps\nMovie name                               : 10 29 2012 11 34.Title2.DVDRip\nWriting application                      : Lavf53.32.100\nOriginal source form/Name                : 10 29 2012 11 34\n\nVideo\nID                                       : 0\nFormat                                   : MPEG-4 Visual\nFormat profile                           : Advanced Simple@L5\nFormat settings, BVOP                    : 2\nFormat settings, QPel                    : No\nFormat settings, GMC                     : No warppoints\nFormat settings, Matrix                  : Default (H.263)\nMuxing mode                              : Packed bitstream\nCodec ID                                 : XVID\nCodec ID/Hint                            : XviD\nDuration                                 : 1h 37mn\nBit rate                                 : 853 Kbps\nWidth                                    : 640 pixels\nHeight                                   : 368 pixels\nDisplay aspect ratio                     : 1.739\nFrame rate                               : 23.976 fps\nColor space                              : YUV\nChroma subsampling                       : 4:2:0\nBit depth                                : 8 bits\nScan type                                : Progressive\nCompression mode                         : Lossy\nBits/(Pixel*Frame)                       : 0.151\nStream size                              : 594 MiB (86%)\nWriting library                          : XviD 64\n\nAudio\nID                                       : 1\nFormat                                   : AC-3\nFormat/Info                              : Audio Coding 3\nMode extension                           : CM (complete main)\nFormat settings, Endianness              : Big\nCodec ID                                 : 2000\nDuration                                 : 1h 37mn\nBit rate mode                            : Constant\nBit rate                                 : 128 Kbps\nChannel(s)                               : 2 channels\nChannel positions                        : Front: L R\nSampling rate                            : 48.0 KHz\nBit depth                                : 16 bits\nCompression mode                         : Lossy\nStream size                              : 88.9 MiB (13%)\nAlignment                                : Aligned on interleaves\nInterleave, duration                     : 32 ms (0.77 video frame)\n\n\n\n\n-------------------------------------------------------------------------------\nGenerated with Cool NFO Creator - http://fly.to/coolbeans\n-------------------------------------------------------------------------------\n","torrent":{"xt":"urn:btih:fa05b23bcdd662df4f7d32076a5dff99a5582646","amp;dn":"Demon+Exorcism+-+The+Devil+Inside+Maxwell+Bastas+%282013%29+DVDRip","amp;tr":["udp%3A%2F%2Ftracker.openbittorrent.com%3A80","udp%3A%2F%2Fopen.demonii.com%3A1337","udp%3A%2F%2Ftracker.coppersurfer.tk%3A6969","udp%3A%2F%2Fexodus.desync.com%3A6969"],"infoHash":"fa05b23bcdd662df4f7d32076a5dff99a5582646","infoHashBuffer":{"type":"Buffer","data":[250,5,178,59,205,214,98,223,79,125,50,7,106,93,255,153,165,88,38,70]},"announce":[],"urlList":[]}}